<svg width="26" height="28" viewBox="0 0 26 28" fill="none" xmlns="http://www.w3.org/2000/svg">
<path d="M13 0C5.85 0 0 6.09331 0 13.5407C0 20.9881 5.85 27.0814 13 27.0814C20.15 27.0814 26 20.9881 26 13.5407C26 6.09331 20.15 0 13 0ZM18.46 11.2388L12.22 17.7383C11.7 18.2799 10.92 18.2799 10.4 17.7383L7.54 14.7594C7.02 14.2177 7.02 13.4053 7.54 12.8637C8.06 12.322 8.84 12.322 9.36 12.8637L11.31 14.8948L16.64 9.34308C17.16 8.80145 17.94 8.80145 18.46 9.34308C18.98 9.88471 18.98 10.6971 18.46 11.2388Z" fill="white"/>
</svg>
