<svg width="15" height="15" viewBox="0 0 15 15" fill="none" xmlns="http://www.w3.org/2000/svg">
<path d="M14.5834 6.15416C14.6542 5.8 14.3709 5.375 14.0167 5.375L9.97925 4.80833L8.13758 1.125C8.06675 0.98333 7.99591 0.912497 7.85425 0.841664C7.50008 0.629164 7.07508 0.77083 6.86258 1.125L5.09175 4.80833L1.05425 5.375C0.841748 5.375 0.700081 5.44583 0.629248 5.5875C0.345915 5.87083 0.345915 6.29583 0.629248 6.57916L3.53341 9.4125L2.82508 13.45C2.82508 13.5917 2.82508 13.7333 2.89591 13.875C3.10841 14.2292 3.53341 14.3708 3.88758 14.1583L7.50008 12.2458L11.1126 14.1583C11.1834 14.2292 11.3251 14.2292 11.4667 14.2292C11.5376 14.2292 11.5376 14.2292 11.6084 14.2292C11.9626 14.1583 12.2459 13.8042 12.1751 13.3792L11.4667 9.34166L14.3709 6.50833C14.5126 6.4375 14.5834 6.29583 14.5834 6.15416Z" fill="#CBB279"/>
</svg>
